<svg width="10" height="11" viewBox="0 0 10 11" fill="none" xmlns="http://www.w3.org/2000/svg">
<path fill-rule="evenodd" clip-rule="evenodd" d="M4.93145 0.443324C5.09721 0.443324 5.25619 0.509171 5.3734 0.626382C5.49061 0.743592 5.55645 0.902564 5.55645 1.06832L5.55645 8.30958L8.23895 5.62582C8.29706 5.56771 8.36605 5.52162 8.44197 5.49017C8.5179 5.45872 8.59927 5.44254 8.68145 5.44254C8.76363 5.44254 8.84501 5.45872 8.92093 5.49017C8.99686 5.52162 9.06584 5.56771 9.12395 5.62582C9.18206 5.68393 9.22816 5.75292 9.25961 5.82884C9.29106 5.90477 9.30724 5.98614 9.30724 6.06832C9.30724 6.1505 9.29106 6.23188 9.25961 6.3078C9.22816 6.38373 9.18206 6.45271 9.12395 6.51082L5.37395 10.2608C5.3159 10.319 5.24693 10.3652 5.171 10.3967C5.09506 10.4282 5.01366 10.4444 4.93145 10.4444C4.84924 10.4444 4.76784 10.4282 4.69191 10.3967C4.61598 10.3652 4.54701 10.319 4.48895 10.2608L0.738954 6.51082C0.621595 6.39347 0.555664 6.23429 0.555664 6.06832C0.555664 5.90235 0.621595 5.74318 0.738953 5.62582C0.856312 5.50847 1.01548 5.44254 1.18145 5.44254C1.34742 5.44254 1.5066 5.50847 1.62395 5.62582L4.30645 8.30958L4.30645 1.06832C4.30645 0.902564 4.3723 0.743592 4.48951 0.626382C4.60672 0.509171 4.76569 0.443324 4.93145 0.443324Z" fill="#333333"/>
</svg>
