<svg width="17" height="17" viewBox="0 0 17 17" fill="none" xmlns="http://www.w3.org/2000/svg">
<path d="M3.16666 0.5H14C14.663 0.5 15.2989 0.763392 15.7678 1.23223C16.2366 1.70107 16.5 2.33696 16.5 3V10.5C16.5 11.163 16.2366 11.7989 15.7678 12.2678C15.2989 12.7366 14.663 13 14 13H10.1783L7.08916 16.0892C6.97261 16.2057 6.82414 16.285 6.66252 16.3172C6.50089 16.3493 6.33336 16.3328 6.18111 16.2697C6.02886 16.2067 5.89873 16.0999 5.80716 15.9629C5.71558 15.8259 5.66669 15.6648 5.66666 15.5V13H3.16666C2.50362 13 1.86773 12.7366 1.39889 12.2678C0.930049 11.7989 0.666656 11.163 0.666656 10.5V3C0.666656 2.33696 0.930049 1.70107 1.39889 1.23223C1.86773 0.763392 2.50362 0.5 3.16666 0.5ZM14 1.33333H3.16666C2.72463 1.33333 2.30071 1.50893 1.98815 1.82149C1.67558 2.13405 1.49999 2.55797 1.49999 3V10.5C1.49999 10.942 1.67558 11.3659 1.98815 11.6785C2.30071 11.9911 2.72463 12.1667 3.16666 12.1667H6.49999V15.5L9.83332 12.1667H14C14.442 12.1667 14.8659 11.9911 15.1785 11.6785C15.4911 11.3659 15.6667 10.942 15.6667 10.5V3C15.6667 2.55797 15.4911 2.13405 15.1785 1.82149C14.8659 1.50893 14.442 1.33333 14 1.33333ZM3.16666 3.83333H14V4.66667H3.16666V3.83333ZM3.16666 6.33333H13.1667V7.16667H3.16666V6.33333ZM3.16666 8.83333H9.83332V9.66667H3.16666V8.83333Z" fill="#929292"/>
</svg>
